<svg xmlns="http://www.w3.org/2000/svg" shape-rendering="geometricPrecision" text-rendering="geometricPrecision" image-rendering="optimizeQuality" fill-rule="evenodd" clip-rule="evenodd" viewBox="0 0 512 512"><path fill-rule="nonzero" d="M256 0c70.69 0 134.69 28.66 181.01 74.99C483.35 121.31 512 185.33 512 256c0 70.69-28.65 134.69-74.99 181.01C390.69 483.35 326.69 512 256 512c-70.67 0-134.69-28.65-181.01-74.99C28.66 390.69 0 326.69 0 256c0-70.68 28.66-134.69 74.99-181.01C121.31 28.66 185.33 0 256 0zm-40.8 170.62v168.46h-45.75V212.73h-.96l-36.87 22.04v-38.79l41.46-25.36h42.12zm97.39 170.78c-12.94 0-24.44-2.32-34.44-6.88-10-4.59-17.87-10.92-23.59-18.95-5.75-8.07-8.64-17.33-8.76-27.83h44.39c.2 5.82 2.44 10.46 6.8 13.93 4.36 3.44 9.57 5.18 15.6 5.18 4.67 0 8.76-1.01 12.35-3.01 3.55-2.01 6.33-4.83 8.37-8.54 2.01-3.66 3.01-7.91 2.98-12.81.03-4.94-.97-9.23-2.98-12.86-2.04-3.66-4.82-6.48-8.37-8.49-3.59-2.01-7.68-3.01-12.35-3.01-4.83 0-9.27 1.19-13.36 3.51s-7.11 5.56-9.04 9.65l-40.11-7.87 6.57-92.8h113.18v36.51h-75.66l-3.32 37.18h1c2.63-5.1 7.19-9.31 13.67-12.7 6.44-3.36 13.97-5.06 22.54-5.06 10 0 18.96 2.35 26.83 6.99 7.87 4.67 14.09 11.12 18.69 19.3 4.55 8.18 6.83 17.64 6.79 28.34.04 11.73-2.74 22.15-8.38 31.23-5.59 9.06-13.47 16.17-23.62 21.26-10.16 5.14-22.08 7.73-35.78 7.73zm99.82-241.81C372.39 59.57 317.09 34.81 256 34.81S139.61 59.57 99.59 99.59C59.57 139.61 34.81 194.92 34.81 256c0 61.09 24.76 116.39 64.78 156.41 40.02 40.02 95.32 64.79 156.41 64.79s116.39-24.77 156.41-64.79c40.02-40.02 64.78-95.32 64.78-156.41s-24.76-116.39-64.78-156.41z"/></svg>